<svg width="340" height="74" viewBox="0 0 340 74" fill="none" xmlns="http://www.w3.org/2000/svg">
<g clip-path="url(#clip0_26256_18116)">
<rect width="340" height="74" rx="12" fill="#4A4A4A"/>
<g opacity="0.1" clip-path="url(#clip1_26256_18116)">
<path d="M338.848 79.4343C333.705 100.327 312.813 113.042 292.183 107.832C271.562 102.624 259.008 81.461 264.153 60.5697C269.293 39.6743 290.186 26.9583 310.809 32.167C331.438 37.3757 343.991 58.5406 338.847 79.4347L338.848 79.4343H338.848Z" fill="white"/>
<path opacity="0.4" d="M280.496 67.5351C280.072 66.0176 279.728 64.479 279.464 62.9256C278.844 59.2768 281.015 55.3877 284.875 53.2304C291.25 49.6671 298.137 46.9945 305.247 45.3242C309.552 44.3127 313.778 45.7193 315.781 48.8309C317.763 51.9086 319.351 55.1877 320.527 58.6181L280.496 67.5351Z" fill="#434343"/>
<path d="M286.629 89.1094C282.915 88.4796 279.952 85.6635 279.135 81.9857C277.622 75.1792 277.622 68.1237 279.135 61.3172C279.952 57.6394 282.915 54.8233 286.629 54.1935C296.81 52.4681 307.209 52.4681 317.39 54.1935C321.105 54.8233 324.067 57.6394 324.885 61.3172C326.398 68.1235 326.398 75.1787 324.885 81.9857C324.068 85.6635 321.105 88.4796 317.39 89.1094C307.209 90.8349 296.81 90.8349 286.629 89.1094Z" fill="#434343"/>
<path d="M308.181 75.5746C309.584 76.8235 311.349 77.5906 313.219 77.7638L313.413 77.7814C317.109 78.1236 320.829 78.1236 324.526 77.7814C326.305 77.6167 327.712 76.203 327.867 74.4232C328.043 72.4192 328.043 70.404 327.867 68.4C327.712 66.6202 326.305 65.2064 324.526 65.0417C320.829 64.6996 317.109 64.6996 313.413 65.0417L313.219 65.0594C311.349 65.2325 309.584 65.9997 308.181 67.2486C307.795 67.5929 307.468 67.999 307.214 68.4502C306.705 69.354 306.438 70.3737 306.438 71.4109C306.438 72.4481 306.705 73.4678 307.214 74.3716C307.468 74.8228 307.795 75.2289 308.181 75.5732V75.5746Z" fill="#AAAAAA"/>
<path d="M309.605 71.412C309.605 72.1937 309.916 72.9434 310.469 73.4962C311.022 74.049 311.771 74.3595 312.553 74.3595C313.335 74.3595 314.085 74.049 314.637 73.4962C315.19 72.9434 315.501 72.1937 315.501 71.412C315.501 70.6302 315.19 69.8805 314.637 69.3277C314.085 68.7749 313.335 68.4644 312.553 68.4644C311.771 68.4644 311.022 68.7749 310.469 69.3277C309.916 69.8805 309.605 70.6302 309.605 71.412Z" fill="#434343"/>
</g>
<path d="M69.7216 46V28.5455H76.4034C77.6648 28.5455 78.7131 28.7443 79.5483 29.142C80.3892 29.5341 81.017 30.071 81.4318 30.7528C81.8523 31.4347 82.0625 32.2074 82.0625 33.071C82.0625 33.7812 81.9261 34.3892 81.6534 34.8949C81.3807 35.3949 81.0142 35.8011 80.554 36.1136C80.0938 36.4261 79.5795 36.6506 79.0114 36.7869V36.9574C79.6307 36.9915 80.2244 37.1818 80.7926 37.5284C81.3665 37.8693 81.8352 38.3523 82.1989 38.9773C82.5625 39.6023 82.7443 40.358 82.7443 41.2443C82.7443 42.1477 82.5256 42.9602 82.0881 43.6818C81.6506 44.3977 80.9915 44.9631 80.1108 45.3778C79.2301 45.7926 78.1222 46 76.7869 46H69.7216ZM72.8835 43.358H76.2841C77.4318 43.358 78.2585 43.1392 78.7642 42.7017C79.2756 42.2585 79.5312 41.6903 79.5312 40.9972C79.5312 40.4801 79.4034 40.0142 79.1477 39.5994C78.892 39.179 78.5284 38.8494 78.0568 38.6108C77.5852 38.3665 77.0227 38.2443 76.3693 38.2443H72.8835V43.358ZM72.8835 35.9688H76.0114C76.5568 35.9688 77.0483 35.8693 77.4858 35.6705C77.9233 35.4659 78.267 35.179 78.517 34.8097C78.7727 34.4347 78.9006 33.9915 78.9006 33.4801C78.9006 32.804 78.6619 32.2472 78.1847 31.8097C77.7131 31.3722 77.0114 31.1534 76.0795 31.1534H72.8835V35.9688ZM85.3587 46V32.9091H88.4439V46H85.3587ZM86.9098 31.0511C86.4212 31.0511 86.0007 30.8892 85.6484 30.5653C85.2962 30.2358 85.12 29.8409 85.12 29.3807C85.12 28.9148 85.2962 28.5199 85.6484 28.196C86.0007 27.8665 86.4212 27.7017 86.9098 27.7017C87.4041 27.7017 87.8246 27.8665 88.1712 28.196C88.5234 28.5199 88.6996 28.9148 88.6996 29.3807C88.6996 29.8409 88.5234 30.2358 88.1712 30.5653C87.8246 30.8892 87.4041 31.0511 86.9098 31.0511ZM98.1534 32.9091V35.2955H90.6278V32.9091H98.1534ZM92.4858 29.7727H95.571V42.0625C95.571 42.4773 95.6335 42.7955 95.7585 43.017C95.8892 43.233 96.0597 43.3807 96.2699 43.4602C96.4801 43.5398 96.7131 43.5795 96.9688 43.5795C97.1619 43.5795 97.3381 43.5653 97.4972 43.5369C97.6619 43.5085 97.7869 43.483 97.8722 43.4602L98.392 45.8722C98.2273 45.929 97.9915 45.9915 97.6847 46.0597C97.3835 46.1278 97.0142 46.1676 96.5767 46.179C95.804 46.2017 95.108 46.0852 94.4886 45.8295C93.8693 45.5682 93.3778 45.1648 93.0142 44.6193C92.6563 44.0739 92.4801 43.392 92.4858 42.5739V29.7727ZM103.435 46L99.7365 32.9091H102.881L105.183 42.1136H105.302L107.654 32.9091H110.765L113.117 42.0625H113.245L115.512 32.9091H118.665L114.958 46H111.745L109.29 37.1534H109.112L106.657 46H103.435ZM124.587 46.2642C123.757 46.2642 123.01 46.1165 122.345 45.821C121.686 45.5199 121.163 45.0767 120.777 44.4915C120.396 43.9062 120.206 43.1847 120.206 42.3267C120.206 41.5881 120.342 40.9773 120.615 40.4943C120.888 40.0114 121.26 39.625 121.732 39.3352C122.203 39.0455 122.734 38.8267 123.325 38.679C123.922 38.5256 124.538 38.4148 125.175 38.3466C125.942 38.267 126.564 38.196 127.041 38.1335C127.518 38.0653 127.865 37.9631 128.081 37.8267C128.303 37.6847 128.413 37.4659 128.413 37.1705V37.1193C128.413 36.4773 128.223 35.9801 127.842 35.6278C127.462 35.2756 126.913 35.0994 126.197 35.0994C125.442 35.0994 124.842 35.2642 124.399 35.5938C123.962 35.9233 123.666 36.3125 123.513 36.7614L120.632 36.3523C120.859 35.5568 121.234 34.892 121.757 34.358C122.28 33.8182 122.919 33.4148 123.675 33.1477C124.43 32.875 125.266 32.7386 126.18 32.7386C126.811 32.7386 127.439 32.8125 128.064 32.9602C128.689 33.108 129.26 33.3523 129.777 33.6932C130.294 34.0284 130.709 34.4858 131.021 35.0653C131.339 35.6449 131.499 36.3693 131.499 37.2386V46H128.533V44.2017H128.43C128.243 44.5653 127.979 44.9062 127.638 45.2244C127.303 45.5369 126.879 45.7898 126.368 45.983C125.862 46.1705 125.268 46.2642 124.587 46.2642ZM125.388 43.9972C126.007 43.9972 126.544 43.875 126.999 43.6307C127.453 43.3807 127.803 43.0511 128.047 42.642C128.297 42.233 128.422 41.7869 128.422 41.304V39.7614C128.325 39.8409 128.161 39.9148 127.928 39.983C127.7 40.0511 127.445 40.1108 127.161 40.1619C126.876 40.2131 126.595 40.2585 126.317 40.2983C126.038 40.3381 125.797 40.3722 125.592 40.4006C125.132 40.4631 124.72 40.5653 124.357 40.7074C123.993 40.8494 123.706 41.0483 123.496 41.304C123.286 41.554 123.18 41.8778 123.18 42.2756C123.18 42.8438 123.388 43.2727 123.803 43.5625C124.217 43.8523 124.746 43.9972 125.388 43.9972ZM136.05 50.9091C135.629 50.9091 135.24 50.875 134.882 50.8068C134.53 50.7443 134.249 50.6705 134.038 50.5852L134.754 48.1818C135.203 48.3125 135.604 48.375 135.956 48.3693C136.308 48.3636 136.618 48.2528 136.885 48.0369C137.158 47.8267 137.388 47.4744 137.575 46.9801L137.839 46.2727L133.092 32.9091H136.365L139.382 42.7955H139.518L142.544 32.9091H145.825L140.584 47.5852C140.339 48.2784 140.016 48.8722 139.612 49.3665C139.209 49.8665 138.714 50.2472 138.129 50.5085C137.55 50.7756 136.857 50.9091 136.05 50.9091Z" fill="white"/>
<rect x="16" y="16" width="42" height="42" rx="21" fill="#AAAAAA"/>
<path opacity="0.4" d="M25.3107 36.4111C25.0827 35.5949 24.8974 34.7674 24.7556 33.9318C24.4222 31.9692 25.5898 29.8774 27.6661 28.717C31.0951 26.8004 34.7994 25.3628 38.6235 24.4644C40.939 23.9203 43.2122 24.6769 44.2897 26.3506C45.3558 28.006 46.2101 29.7698 46.8424 31.6149L25.3107 36.4111Z" fill="white"/>
<path d="M28.6103 48.0156C26.6123 47.6769 25.0189 46.1621 24.579 44.1839C23.7653 40.5229 23.7653 36.7279 24.579 33.0668C25.0185 31.0886 26.6123 29.5739 28.6103 29.2351C34.0865 28.307 39.6798 28.307 45.1559 29.2351C47.1539 29.5739 48.7473 31.0886 49.1872 33.0668C50.0009 36.7278 50.0009 40.5226 49.1872 44.1839C48.7477 46.1621 47.1539 47.6769 45.1559 48.0156C39.6798 48.9437 34.0865 48.9437 28.6103 48.0156Z" fill="white"/>
<path d="M40.2036 40.7355C40.9579 41.4073 41.9075 41.8199 42.9133 41.913L43.0175 41.9225C45.0057 42.1066 47.0068 42.1066 48.995 41.9225C49.952 41.834 50.7086 41.0735 50.7922 40.1162C50.8865 39.0383 50.8865 37.9544 50.7922 36.8765C50.7086 35.9191 49.952 35.1587 48.995 35.0701C47.0068 34.8861 45.0057 34.8861 43.0175 35.0701L42.9133 35.0796C41.9075 35.1728 40.9579 35.5854 40.2036 36.2571C39.9956 36.4424 39.8197 36.6608 39.6831 36.9035C39.4094 37.3896 39.2656 37.9381 39.2656 38.496C39.2656 39.0538 39.4094 39.6023 39.6831 40.0884C39.8197 40.3312 39.9956 40.5496 40.2036 40.7348V40.7355Z" fill="#AAAAAA"/>
<path d="M40.9688 38.4966C40.9688 38.9171 41.1358 39.3203 41.4331 39.6177C41.7304 39.915 42.1337 40.082 42.5542 40.082C42.9747 40.082 43.3779 39.915 43.6753 39.6177C43.9726 39.3203 44.1396 38.9171 44.1396 38.4966C44.1396 38.0761 43.9726 37.6728 43.6753 37.3755C43.3779 37.0782 42.9747 36.9111 42.5542 36.9111C42.1337 36.9111 41.7304 37.0782 41.4331 37.3755C41.1358 37.6728 40.9688 38.0761 40.9688 38.4966Z" fill="white"/>
</g>
<defs>
<clipPath id="clip0_26256_18116">
<rect width="340" height="74" rx="12" fill="white"/>
</clipPath>
<clipPath id="clip1_26256_18116">
<rect width="77" height="78" fill="white" transform="translate(263 31)"/>
</clipPath>
</defs>
</svg>
