<svg width="340" height="74" viewBox="0 0 340 74" fill="none" xmlns="http://www.w3.org/2000/svg">
<g clip-path="url(#clip0_26827_14491)">
<rect width="340" height="74" rx="12" fill="#F7F7F7"/>
<g opacity="0.1" clip-path="url(#clip1_26827_14491)">
<path d="M338.848 79.4343C333.705 100.327 312.813 113.042 292.183 107.832C271.562 102.624 259.008 81.461 264.153 60.5697C269.293 39.6743 290.186 26.9583 310.809 32.167C331.438 37.3757 343.991 58.5406 338.847 79.4347L338.848 79.4343H338.848Z" fill="#AAAAAA"/>
<g opacity="0.89">
<rect x="276.277" y="46" width="48.4682" height="10.2744" fill="#0F0F0F"/>
<g clip-path="url(#clip2_26827_14491)">
<path d="M300.487 50.069C308.508 50.069 316.506 50.069 324.526 50.069C325.709 50.069 325.851 50.1651 325.851 50.9654C325.851 54.0067 325.851 57.032 325.851 60.0733C325.851 64.9715 325.828 69.8856 325.875 74.7837C325.875 75.488 325.662 76.0643 324.976 76.6085C323.84 77.5209 322.776 78.4653 321.663 79.4097C319.936 80.8823 318.209 82.371 316.482 83.8436C315.961 84.2918 315.417 84.724 314.873 85.1722C313.69 86.1166 312.223 86.0846 311.087 85.1082C309.313 83.5555 307.515 82.0028 305.74 80.4502C304.652 79.4897 303.587 78.5133 302.522 77.5529C301.103 76.2724 299.778 76.2563 298.334 77.5369C296.465 79.1856 294.62 80.8343 292.751 82.467C291.733 83.3634 290.739 84.2598 289.722 85.1562C288.705 86.0526 287.261 86.1166 286.149 85.2682C285.061 84.4359 284.067 83.5395 283.026 82.6751C281.914 81.7467 280.826 80.8023 279.714 79.8739C278.247 78.6094 276.756 77.3608 275.313 76.0803C275.1 75.9042 275.029 75.6161 275.029 75.376C275.005 70.878 275.005 66.3801 275.005 61.8821C275.005 58.2326 275.005 54.599 275.005 50.9494C275.005 50.1651 275.124 50.085 276.283 50.085C284.375 50.069 292.443 50.069 300.487 50.069ZM300.464 61.1138C292.49 61.1138 284.517 61.1138 276.543 61.1138C276.33 61.1138 276.023 61.1618 275.952 61.2579C275.857 61.3539 275.928 61.578 276.07 61.69C277.016 62.5384 278.01 63.3548 278.98 64.2031C280.566 65.5797 282.127 66.9563 283.736 68.3169C284.611 69.0692 285.487 69.8216 286.41 70.5419C287.19 71.1341 288.515 71.1661 289.273 70.5739C290.479 69.6295 291.615 68.605 292.751 67.6126C294.643 65.9479 296.489 64.2672 298.382 62.6024C299.636 61.498 301.008 61.3859 302.191 62.3143C303.161 63.0987 304.06 63.915 304.983 64.7314C306.119 65.7398 307.231 66.7482 308.366 67.7407C309.289 68.573 310.259 69.3734 311.135 70.2217C312.034 71.0861 313.832 71.2782 314.802 70.3338C315.299 69.8536 315.914 69.4374 316.435 68.9732C317.949 67.6446 319.439 66.316 320.954 65.0035C322.184 63.899 323.485 62.8265 324.763 61.7221C324.905 61.61 324.976 61.3859 324.929 61.2579C324.905 61.1778 324.55 61.1138 324.337 61.1138C316.364 61.1138 308.414 61.1138 300.464 61.1138Z" fill="#0F0F0F"/>
</g>
</g>
</g>
<rect opacity="0.2" x="16" y="16" width="42" height="42" rx="21" fill="#AAAAAA"/>
<g opacity="0.2">
<rect x="25.3809" y="28.6504" width="22.6189" height="4.79481" fill="#0F0F0F"/>
<g clip-path="url(#clip3_26827_14491)">
<path d="M36.6796 30.5488C40.4227 30.5488 44.1548 30.5488 47.898 30.5488C48.4501 30.5488 48.5163 30.5936 48.5163 30.9671C48.5163 32.3864 48.5163 33.7983 48.5163 35.2176C48.5163 37.5034 48.5053 39.7967 48.5273 42.0825C48.5273 42.4112 48.428 42.6801 48.1078 42.9341C47.5778 43.3599 47.0809 43.8006 46.5619 44.2414C45.7559 44.9286 44.9498 45.6233 44.1438 46.3106C43.9009 46.5197 43.6469 46.7214 43.393 46.9306C42.8409 47.3713 42.1563 47.3564 41.6263 46.9007C40.7982 46.1761 39.959 45.4515 39.1309 44.7269C38.623 44.2787 38.1261 43.823 37.6292 43.3748C36.9667 42.7772 36.3484 42.7698 35.6748 43.3674C34.8025 44.1368 33.9413 44.9062 33.069 45.6681C32.5942 46.0865 32.1304 46.5048 31.6557 46.9231C31.1809 47.3414 30.5073 47.3713 29.9884 46.9754C29.4804 46.587 29.0167 46.1686 28.5309 45.7653C28.0119 45.332 27.504 44.8913 26.985 44.458C26.3004 43.8679 25.6048 43.2852 24.9313 42.6876C24.8319 42.6054 24.7988 42.471 24.7988 42.3589C24.7877 40.2598 24.7877 38.1608 24.7877 36.0617C24.7877 34.3585 24.7877 32.6628 24.7877 30.9596C24.7877 30.5936 24.8429 30.5563 25.384 30.5563C29.1602 30.5488 32.9254 30.5488 36.6796 30.5488ZM36.6686 35.7031C32.9475 35.7031 29.2265 35.7031 25.5054 35.7031C25.4061 35.7031 25.2625 35.7255 25.2294 35.7703C25.1852 35.8152 25.2184 35.9197 25.2846 35.972C25.7263 36.3679 26.19 36.7489 26.6427 37.1448C27.3825 37.7873 28.1113 38.4297 28.8621 39.0646C29.2706 39.4157 29.6792 39.7668 30.1098 40.103C30.4742 40.3794 31.0925 40.3943 31.4459 40.1179C32.009 39.6772 32.539 39.1991 33.069 38.7359C33.9523 37.9591 34.8136 37.1747 35.6969 36.3978C36.2821 35.8824 36.9225 35.8301 37.4746 36.2634C37.9273 36.6294 38.3469 37.0104 38.7775 37.3913C39.3075 37.862 39.8265 38.3326 40.3565 38.7957C40.7871 39.1842 41.2398 39.5577 41.6484 39.9536C42.068 40.3569 42.9071 40.4466 43.3598 40.0059C43.5917 39.7818 43.8788 39.5875 44.1217 39.3709C44.8284 38.7509 45.524 38.1309 46.2307 37.5183C46.8048 37.0029 47.4121 36.5024 48.0084 35.987C48.0746 35.9347 48.1078 35.8301 48.0857 35.7703C48.0746 35.733 47.909 35.7031 47.8096 35.7031C44.0886 35.7031 40.3786 35.7031 36.6686 35.7031Z" fill="#0F0F0F"/>
</g>
</g>
<path d="M69.7216 46V28.5455H76.4034C77.6648 28.5455 78.7131 28.7443 79.5483 29.142C80.3892 29.5341 81.017 30.071 81.4318 30.7528C81.8523 31.4347 82.0625 32.2074 82.0625 33.071C82.0625 33.7812 81.9261 34.3892 81.6534 34.8949C81.3807 35.3949 81.0142 35.8011 80.554 36.1136C80.0938 36.4261 79.5795 36.6506 79.0114 36.7869V36.9574C79.6307 36.9915 80.2244 37.1818 80.7926 37.5284C81.3665 37.8693 81.8352 38.3523 82.1989 38.9773C82.5625 39.6023 82.7443 40.358 82.7443 41.2443C82.7443 42.1477 82.5256 42.9602 82.0881 43.6818C81.6506 44.3977 80.9915 44.9631 80.1108 45.3778C79.2301 45.7926 78.1222 46 76.7869 46H69.7216ZM72.8835 43.358H76.2841C77.4318 43.358 78.2585 43.1392 78.7642 42.7017C79.2756 42.2585 79.5312 41.6903 79.5312 40.9972C79.5312 40.4801 79.4034 40.0142 79.1477 39.5994C78.892 39.179 78.5284 38.8494 78.0568 38.6108C77.5852 38.3665 77.0227 38.2443 76.3693 38.2443H72.8835V43.358ZM72.8835 35.9688H76.0114C76.5568 35.9688 77.0483 35.8693 77.4858 35.6705C77.9233 35.4659 78.267 35.179 78.517 34.8097C78.7727 34.4347 78.9006 33.9915 78.9006 33.4801C78.9006 32.804 78.6619 32.2472 78.1847 31.8097C77.7131 31.3722 77.0114 31.1534 76.0795 31.1534H72.8835V35.9688ZM85.3587 46V32.9091H88.4439V46H85.3587ZM86.9098 31.0511C86.4212 31.0511 86.0007 30.8892 85.6484 30.5653C85.2962 30.2358 85.12 29.8409 85.12 29.3807C85.12 28.9148 85.2962 28.5199 85.6484 28.196C86.0007 27.8665 86.4212 27.7017 86.9098 27.7017C87.4041 27.7017 87.8246 27.8665 88.1712 28.196C88.5234 28.5199 88.6996 28.9148 88.6996 29.3807C88.6996 29.8409 88.5234 30.2358 88.1712 30.5653C87.8246 30.8892 87.4041 31.0511 86.9098 31.0511ZM98.1534 32.9091V35.2955H90.6278V32.9091H98.1534ZM92.4858 29.7727H95.571V42.0625C95.571 42.4773 95.6335 42.7955 95.7585 43.017C95.8892 43.233 96.0597 43.3807 96.2699 43.4602C96.4801 43.5398 96.7131 43.5795 96.9688 43.5795C97.1619 43.5795 97.3381 43.5653 97.4972 43.5369C97.6619 43.5085 97.7869 43.483 97.8722 43.4602L98.392 45.8722C98.2273 45.929 97.9915 45.9915 97.6847 46.0597C97.3835 46.1278 97.0142 46.1676 96.5767 46.179C95.804 46.2017 95.108 46.0852 94.4886 45.8295C93.8693 45.5682 93.3778 45.1648 93.0142 44.6193C92.6563 44.0739 92.4801 43.392 92.4858 42.5739V29.7727ZM103.435 46L99.7365 32.9091H102.881L105.183 42.1136H105.302L107.654 32.9091H110.765L113.117 42.0625H113.245L115.512 32.9091H118.665L114.958 46H111.745L109.29 37.1534H109.112L106.657 46H103.435ZM124.587 46.2642C123.757 46.2642 123.01 46.1165 122.345 45.821C121.686 45.5199 121.163 45.0767 120.777 44.4915C120.396 43.9062 120.206 43.1847 120.206 42.3267C120.206 41.5881 120.342 40.9773 120.615 40.4943C120.888 40.0114 121.26 39.625 121.732 39.3352C122.203 39.0455 122.734 38.8267 123.325 38.679C123.922 38.5256 124.538 38.4148 125.175 38.3466C125.942 38.267 126.564 38.196 127.041 38.1335C127.518 38.0653 127.865 37.9631 128.081 37.8267C128.303 37.6847 128.413 37.4659 128.413 37.1705V37.1193C128.413 36.4773 128.223 35.9801 127.842 35.6278C127.462 35.2756 126.913 35.0994 126.197 35.0994C125.442 35.0994 124.842 35.2642 124.399 35.5938C123.962 35.9233 123.666 36.3125 123.513 36.7614L120.632 36.3523C120.859 35.5568 121.234 34.892 121.757 34.358C122.28 33.8182 122.919 33.4148 123.675 33.1477C124.43 32.875 125.266 32.7386 126.18 32.7386C126.811 32.7386 127.439 32.8125 128.064 32.9602C128.689 33.108 129.26 33.3523 129.777 33.6932C130.294 34.0284 130.709 34.4858 131.021 35.0653C131.339 35.6449 131.499 36.3693 131.499 37.2386V46H128.533V44.2017H128.43C128.243 44.5653 127.979 44.9062 127.638 45.2244C127.303 45.5369 126.879 45.7898 126.368 45.983C125.862 46.1705 125.268 46.2642 124.587 46.2642ZM125.388 43.9972C126.007 43.9972 126.544 43.875 126.999 43.6307C127.453 43.3807 127.803 43.0511 128.047 42.642C128.297 42.233 128.422 41.7869 128.422 41.304V39.7614C128.325 39.8409 128.161 39.9148 127.928 39.983C127.7 40.0511 127.445 40.1108 127.161 40.1619C126.876 40.2131 126.595 40.2585 126.317 40.2983C126.038 40.3381 125.797 40.3722 125.592 40.4006C125.132 40.4631 124.72 40.5653 124.357 40.7074C123.993 40.8494 123.706 41.0483 123.496 41.304C123.286 41.554 123.18 41.8778 123.18 42.2756C123.18 42.8438 123.388 43.2727 123.803 43.5625C124.217 43.8523 124.746 43.9972 125.388 43.9972ZM136.05 50.9091C135.629 50.9091 135.24 50.875 134.882 50.8068C134.53 50.7443 134.249 50.6705 134.038 50.5852L134.754 48.1818C135.203 48.3125 135.604 48.375 135.956 48.3693C136.308 48.3636 136.618 48.2528 136.885 48.0369C137.158 47.8267 137.388 47.4744 137.575 46.9801L137.839 46.2727L133.092 32.9091H136.365L139.382 42.7955H139.518L142.544 32.9091H145.825L140.584 47.5852C140.339 48.2784 140.016 48.8722 139.612 49.3665C139.209 49.8665 138.714 50.2472 138.129 50.5085C137.55 50.7756 136.857 50.9091 136.05 50.9091Z" fill="black"/>
</g>
<defs>
<clipPath id="clip0_26827_14491">
<rect width="340" height="74" rx="12" fill="white"/>
</clipPath>
<clipPath id="clip1_26827_14491">
<rect width="77" height="78" fill="white" transform="translate(263 31)"/>
</clipPath>
<clipPath id="clip2_26827_14491">
<rect width="26.3357" height="48.2822" fill="white" transform="matrix(0 -1 1 0 276.002 87.6758)"/>
</clipPath>
<clipPath id="clip3_26827_14491">
<rect width="12.2902" height="22.5321" fill="white" transform="matrix(0 -1 1 0 25.252 48.0986)"/>
</clipPath>
</defs>
</svg>
