<svg width="336" height="336" viewBox="0 0 336 336" fill="none" xmlns="http://www.w3.org/2000/svg">
<rect width="336" height="336" rx="168" fill="#94E360"/>
<rect x="71.4766" y="94.5732" width="194.244" height="41.1762" fill="#0F2200"/>
<g clip-path="url(#clip0_26507_13414)">
<path d="M168.451 110.871C200.596 110.871 232.646 110.871 264.79 110.871C269.532 110.871 270.1 111.256 270.1 114.464C270.1 126.652 270.1 138.776 270.1 150.965C270.1 170.595 270.006 190.289 270.195 209.919C270.195 212.742 269.342 215.051 266.592 217.232C262.041 220.889 257.774 224.674 253.317 228.459C246.395 234.36 239.473 240.326 232.551 246.228C230.465 248.024 228.284 249.756 226.103 251.553C221.362 255.337 215.483 255.209 210.931 251.296C203.82 245.073 196.613 238.851 189.501 232.628C185.14 228.779 180.873 224.866 176.606 221.017C170.916 215.885 165.606 215.821 159.822 220.953C152.331 227.56 144.935 234.168 137.444 240.711C133.367 244.304 129.384 247.896 125.307 251.488C121.229 255.081 115.445 255.337 110.989 251.938C106.627 248.602 102.644 245.009 98.472 241.545C94.0154 237.824 89.6536 234.04 85.1969 230.319C79.3179 225.251 73.3441 220.247 67.56 215.115C66.7066 214.41 66.4221 213.255 66.4221 212.293C66.3273 194.266 66.3273 176.24 66.3273 158.214C66.3273 143.588 66.3273 129.026 66.3273 114.399C66.3273 111.256 66.8014 110.935 71.4477 110.935C103.877 110.871 136.211 110.871 168.451 110.871ZM168.356 155.135C136.401 155.135 104.446 155.135 72.4907 155.135C71.6373 155.135 70.4046 155.327 70.1202 155.712C69.7409 156.097 70.0253 156.995 70.5943 157.444C74.3872 160.844 78.3697 164.116 82.2574 167.516C88.6105 173.033 94.8688 178.55 101.317 184.002C104.825 187.017 108.334 190.033 112.032 192.919C115.161 195.293 120.471 195.421 123.505 193.048C128.341 189.263 132.893 185.157 137.444 181.18C145.03 174.508 152.426 167.772 160.012 161.101C165.037 156.674 170.537 156.225 175.278 159.946C179.166 163.089 182.769 166.361 186.467 169.633C191.019 173.674 195.475 177.716 200.027 181.693C203.725 185.029 207.613 188.236 211.121 191.636C214.724 195.1 221.931 195.87 225.818 192.085C227.81 190.161 230.275 188.493 232.361 186.633C238.43 181.308 244.404 175.984 250.472 170.723C255.403 166.297 260.618 161.999 265.739 157.573C266.308 157.123 266.592 156.225 266.402 155.712C266.308 155.391 264.885 155.135 264.032 155.135C232.077 155.135 200.216 155.135 168.356 155.135Z" fill="#0F2200"/>
</g>
<defs>
<clipPath id="clip0_26507_13414">
<rect width="105.545" height="193.498" fill="white" transform="matrix(0 -1 1 0 70.2773 261.586)"/>
</clipPath>
</defs>
</svg>
