<svg width="48" height="48" viewBox="0 0 48 48" fill="none" xmlns="http://www.w3.org/2000/svg">
<rect width="48" height="48" rx="10.9714" fill="#0F2200"/>
<path opacity="0.4" d="M11.69 23.9006C11.4342 22.9848 11.2263 22.0562 11.0672 21.1187C10.693 18.9165 12.0032 16.5692 14.3329 15.2672C18.1806 13.1166 22.3371 11.5036 26.6281 10.4955C29.2262 9.88497 31.7769 10.7339 32.9859 12.6119C34.1822 14.4694 35.1408 16.4485 35.8502 18.5189L11.69 23.9006Z" fill="#9FE870"/>
<path d="M15.3956 36.9216C13.1538 36.5415 11.3658 34.8418 10.8722 32.6222C9.95926 28.5142 9.95926 24.2558 10.8722 20.1479C11.3654 17.9282 13.1538 16.2285 15.3956 15.8484C21.5404 14.807 27.8165 14.807 33.9612 15.8484C36.2031 16.2285 37.991 17.9282 38.4846 20.1479C39.3976 24.2558 39.3976 28.5138 38.4846 32.6222C37.9914 34.8418 36.2031 36.5415 33.9612 36.9216C27.8165 37.963 21.5404 37.963 15.3956 36.9216Z" fill="#9FE870"/>
<path d="M28.404 28.7531C29.2505 29.5068 30.316 29.9698 31.4445 30.0743L31.5614 30.085C33.7924 30.2915 36.0377 30.2915 38.2687 30.085C39.3425 29.9856 40.1915 29.1324 40.2853 28.0581C40.3911 26.8487 40.3911 25.6324 40.2853 24.4229C40.1915 23.3487 39.3425 22.4955 38.2687 22.3961C36.0377 22.1896 33.7924 22.1896 31.5614 22.3961L31.4445 22.4067C30.316 22.5112 29.2505 22.9742 28.404 23.728C28.1706 23.9358 27.9733 24.1809 27.82 24.4532C27.5129 24.9987 27.3516 25.6141 27.3516 26.2401C27.3516 26.8661 27.5129 27.4815 27.82 28.027C27.9733 28.2993 28.1706 28.5444 28.404 28.7522V28.7531Z" fill="white"/>
<path d="M29.2617 26.2404C29.2617 26.7122 29.4491 27.1647 29.7828 27.4984C30.1164 27.832 30.5689 28.0194 31.0407 28.0194C31.5125 28.0194 31.965 27.832 32.2987 27.4984C32.6323 27.1647 32.8197 26.7122 32.8197 26.2404C32.8197 25.7686 32.6323 25.3161 32.2987 24.9825C31.965 24.6489 31.5125 24.4614 31.0407 24.4614C30.5689 24.4614 30.1164 24.6489 29.7828 24.9825C29.4491 25.3161 29.2617 25.7686 29.2617 26.2404Z" fill="#9FE870"/>
</svg>
