<svg width="128" height="128" viewBox="0 0 128 128" fill="none" xmlns="http://www.w3.org/2000/svg">
<rect width="128" height="128" rx="29.2571" fill="#0F2200"/>
<path opacity="0.4" d="M31.1734 63.7347C30.4911 61.2924 29.9367 58.8162 29.5125 56.3161C28.5148 50.4436 32.0085 44.1842 38.2212 40.7122C48.4816 34.9773 59.5657 30.6758 71.0081 27.9876C77.9364 26.3596 84.7384 28.6235 87.9625 33.6314C91.1524 38.5848 93.7087 43.8623 95.6006 49.3833L31.1734 63.7347Z" fill="#9FE870"/>
<path d="M41.0603 98.4576C35.0819 97.444 30.3141 92.9116 28.9978 86.9924C26.5632 76.0378 26.5632 64.6823 28.9978 53.7276C30.3129 47.8085 35.0819 43.2761 41.0603 42.2624C57.4461 39.4854 74.1825 39.4854 90.5684 42.2624C96.5467 43.2761 101.315 47.8085 102.631 53.7276C105.065 64.682 105.065 76.0369 102.631 86.9924C101.316 92.9116 96.5467 97.444 90.5684 98.4576C74.1825 101.235 57.4461 101.235 41.0603 98.4576Z" fill="#9FE870"/>
<path d="M75.7441 76.6746C78.0012 78.6846 80.8426 79.9193 83.8521 80.1979L84.1638 80.2263C90.1131 80.777 96.1006 80.777 102.05 80.2263C104.913 79.9613 107.177 77.686 107.428 74.8214C107.71 71.5962 107.71 68.3527 107.428 65.1275C107.177 62.2629 104.913 59.9876 102.05 59.7225C96.1006 59.1719 90.1131 59.1719 84.1638 59.7225L83.8521 59.751C80.8426 60.0296 78.0012 61.2643 75.7441 63.2743C75.1217 63.8285 74.5954 64.482 74.1866 65.2083C73.3677 66.6629 72.9375 68.304 72.9375 69.9733C72.9375 71.6426 73.3677 73.2837 74.1866 74.7383C74.5954 75.4646 75.1217 76.1181 75.7441 76.6723V76.6746Z" fill="white"/>
<path d="M78.0312 69.9745C78.0312 71.2326 78.5311 72.4393 79.4207 73.329C80.3104 74.2186 81.5171 74.7184 82.7752 74.7184C84.0334 74.7184 85.2401 74.2186 86.1297 73.329C87.0194 72.4393 87.5192 71.2326 87.5192 69.9745C87.5192 68.7163 87.0194 67.5096 86.1297 66.62C85.2401 65.7303 84.0334 65.2305 82.7752 65.2305C81.5171 65.2305 80.3104 65.7303 79.4207 66.62C78.5311 67.5096 78.0312 68.7163 78.0312 69.9745Z" fill="#9FE870"/>
</svg>
